<svg width="28" height="27" viewBox="0 0 28 27" fill="none" xmlns="http://www.w3.org/2000/svg">
<path fill-rule="evenodd" clip-rule="evenodd" d="M14.3651 0.258301C6.86675 0.258301 0.793457 6.3316 0.793457 13.8299C0.793457 19.8354 4.67833 24.9077 10.073 26.706C10.7516 26.8247 11.0061 26.4176 11.0061 26.0613C11.0061 25.739 10.9891 24.6702 10.9891 23.5336C7.57926 24.1613 6.69711 22.7024 6.42568 21.939C6.273 21.5488 5.61138 20.3443 5.03459 20.022C4.55958 19.7675 3.881 19.1398 5.01762 19.1228C6.08639 19.1059 6.84979 20.1068 7.10426 20.5139C8.3257 22.5666 10.2766 21.9899 11.057 21.6336C11.1757 20.7514 11.532 20.1577 11.9222 19.8184C8.9025 19.4791 5.7471 18.3085 5.7471 13.1174C5.7471 11.6415 6.273 10.42 7.13819 9.47003C7.00247 9.13074 6.52746 7.73965 7.2739 5.87356C7.2739 5.87356 8.41053 5.5173 11.0061 7.26465C12.0918 6.95929 13.2454 6.8066 14.399 6.8066C15.5526 6.8066 16.7062 6.95929 17.7919 7.26465C20.3875 5.50034 21.5241 5.87356 21.5241 5.87356C22.2705 7.73965 21.7955 9.13074 21.6598 9.47003C22.525 10.42 23.0509 11.6245 23.0509 13.1174C23.0509 18.3255 19.8785 19.4791 16.8589 19.8184C17.3508 20.2425 17.7749 21.0568 17.7749 22.3291C17.7749 24.1443 17.758 25.6033 17.758 26.0613C17.758 26.4176 18.0124 26.8417 18.691 26.706C24.0518 24.9077 27.9367 19.8184 27.9367 13.8299C27.9367 6.3316 21.8634 0.258301 14.3651 0.258301Z" fill="white"/>
</svg>
