<svg width="45" height="47" viewBox="0 0 45 47" fill="none" xmlns="http://www.w3.org/2000/svg">
<path d="M3.46154 40.037C2.77691 40.037 2.10766 40.2412 1.53841 40.6238C0.969165 41.0063 0.525491 41.5501 0.263495 42.1862C0.00149982 42.8224 -0.0670502 43.5224 0.066514 44.1977C0.200078 44.8731 0.529758 45.4934 1.01386 45.9803C1.49797 46.4672 2.11475 46.7988 2.78623 46.9331C3.4577 47.0674 4.1537 46.9985 4.78621 46.735C5.41873 46.4715 5.95935 46.0253 6.3397 45.4527C6.72006 44.8802 6.92308 44.2071 6.92308 43.5185C6.92034 42.596 6.55476 41.7121 5.90619 41.0598C5.25762 40.4075 4.37875 40.0398 3.46154 40.037V40.037ZM22.5 40.037C21.8154 40.037 21.1461 40.2412 20.5769 40.6238C20.0076 41.0063 19.564 41.5501 19.302 42.1862C19.04 42.8224 18.9714 43.5224 19.105 44.1977C19.2385 44.8731 19.5682 45.4934 20.0523 45.9803C20.5364 46.4672 21.1532 46.7988 21.8247 46.9331C22.4962 47.0674 23.1922 46.9985 23.8247 46.735C24.4572 46.4715 24.9978 46.0253 25.3782 45.4527C25.7585 44.8802 25.9615 44.2071 25.9615 43.5185C25.9588 42.596 25.5932 41.7121 24.9447 41.0598C24.2961 40.4075 23.4172 40.0398 22.5 40.037V40.037ZM41.5385 40.037C40.8538 40.037 40.1846 40.2412 39.6153 40.6238C39.0461 41.0063 38.6024 41.5501 38.3404 42.1862C38.0784 42.8224 38.0099 43.5224 38.1434 44.1977C38.277 44.8731 38.6067 45.4934 39.0908 45.9803C39.5749 46.4672 40.1917 46.7988 40.8632 46.9331C41.5346 47.0674 42.2306 46.9985 42.8631 46.735C43.4957 46.4715 44.0363 46.0253 44.4166 45.4527C44.797 44.8802 45 44.2071 45 43.5185C44.9973 42.596 44.6317 41.7121 43.9831 41.0598C43.3345 40.4075 42.4557 40.0398 41.5385 40.037V40.037ZM43.2692 36.5556H39.8077V15.6667C39.805 14.7442 39.4394 13.8602 38.7908 13.2079C38.1422 12.5556 37.2634 12.1879 36.3462 12.1852H32.8846V8.7037H36.3462C38.1806 8.70921 39.9383 9.44458 41.2355 10.7492C42.5326 12.0538 43.2638 13.8217 43.2692 15.6667V36.5556ZM20.7692 17.4074H24.2308V36.5556H20.7692V17.4074ZM5.19231 36.5556H1.73077V15.6667C1.73625 13.8217 2.4674 12.0538 3.76455 10.7492C5.06169 9.44458 6.81942 8.70921 8.65385 8.7037H12.1154V12.1852H8.65385C7.73663 12.1879 6.85777 12.5556 6.2092 13.2079C5.56063 13.8602 5.19505 14.7442 5.19231 15.6667V36.5556ZM22.5 0L20.25 4.58511L15.2204 5.31622L18.8602 8.88822L18 13.9259L22.5 11.5481L27 13.9259L26.1398 8.88822L29.7796 5.32144L24.75 4.58511L22.5 0Z" fill="#D3D3D3"/>
</svg>
