<svg width="28" height="8" viewBox="0 0 28 8" fill="none" xmlns="http://www.w3.org/2000/svg">
<path d="M3.43997 6.82409C2.74406 6.82409 2.07444 6.54233 1.57904 6.03722C1.08328 5.53175 0.802902 4.84396 0.802902 4.12461C0.802902 3.40525 1.08328 2.71746 1.57904 2.21199C2.07444 1.70689 2.74406 1.42512 3.43997 1.42512C4.13589 1.42512 4.8055 1.70689 5.30091 2.21199C5.79667 2.71746 6.07704 3.40525 6.07704 4.12461C6.07704 4.84396 5.79667 5.53175 5.30091 6.03722C4.8055 6.54233 4.13589 6.82409 3.43997 6.82409ZM14.0651 6.82409C13.3692 6.82409 12.6995 6.54233 12.2041 6.03722C11.7084 5.53175 11.428 4.84396 11.428 4.12461C11.428 3.40525 11.7084 2.71746 12.2041 2.21199C12.6995 1.70689 13.3692 1.42512 14.0651 1.42512C14.761 1.42512 15.4306 1.70689 15.926 2.21199C16.4218 2.71746 16.7022 3.40525 16.7022 4.12461C16.7022 4.84396 16.4218 5.53175 15.926 6.03722C15.4306 6.54233 14.761 6.82409 14.0651 6.82409ZM24.6902 6.82409C23.9943 6.82409 23.3247 6.54233 22.8292 6.03722C22.3335 5.53175 22.0531 4.84396 22.0531 4.12461C22.0531 3.40525 22.3335 2.71746 22.8292 2.21199C23.3247 1.70689 23.9943 1.42512 24.6902 1.42512C25.3861 1.42512 26.0557 1.70689 26.5511 2.21199C27.0469 2.71746 27.3273 3.40525 27.3273 4.12461C27.3273 4.84396 27.0469 5.53175 26.5511 6.03722C26.0557 6.54233 25.3861 6.82409 24.6902 6.82409Z" fill="white" stroke="#D3D3D3" stroke-width="1.10092"/>
</svg>
