<svg width="25" height="25" viewBox="0 0 25 25" fill="none" xmlns="http://www.w3.org/2000/svg">
<path fill-rule="evenodd" clip-rule="evenodd" d="M14.8666 2.94961C10.8191 2.94961 7.53793 6.23077 7.53793 10.2783C7.53793 12.3292 8.37861 14.1814 9.73765 15.5131C11.0609 16.8097 12.8693 17.607 14.8666 17.607C18.9141 17.607 22.1953 14.3258 22.1953 10.2783C22.1953 6.23077 18.9141 2.94961 14.8666 2.94961ZM4.8236 10.2783C4.8236 4.73169 9.32001 0.235291 14.8666 0.235291C20.4132 0.235291 24.9096 4.73169 24.9096 10.2783C24.9096 15.8249 20.4132 20.3213 14.8666 20.3213C12.6113 20.3213 10.5281 19.5767 8.85189 18.3216L2.78873 24.2754L0.886963 22.3387L6.91756 16.4168C5.60562 14.72 4.8236 12.5896 4.8236 10.2783Z" fill="#D3D3D3"/>
</svg>
