<svg width="21" height="21" viewBox="0 0 21 21" fill="none" xmlns="http://www.w3.org/2000/svg">
<path d="M19.7696 12.8835L18.2912 11.639C18.3612 11.2167 18.3973 10.7856 18.3973 10.3545C18.3973 9.92334 18.3612 9.49222 18.2912 9.06998L19.7696 7.82549C19.8811 7.7315 19.9609 7.60631 19.9984 7.46658C20.0359 7.32685 20.0293 7.17919 19.9795 7.04324L19.9592 6.98546C19.5522 5.86547 18.9427 4.82723 18.1603 3.9209L18.1197 3.87423C18.0248 3.76434 17.8983 3.68535 17.7569 3.64766C17.6154 3.60997 17.4657 3.61536 17.3275 3.66311L15.4925 4.30535C14.8154 3.75867 14.0593 3.32754 13.2423 3.02531L12.888 1.13635C12.8612 0.994213 12.7912 0.863453 12.6872 0.761439C12.5832 0.659425 12.4501 0.590986 12.3056 0.565214L12.2447 0.554103C11.0688 0.345206 9.83197 0.345206 8.65607 0.554103L8.59513 0.565214C8.45067 0.590986 8.3176 0.659425 8.21359 0.761439C8.10958 0.863453 8.03956 0.994213 8.01282 1.13635L7.65621 3.0342C6.8457 3.33649 6.09091 3.76739 5.42178 4.3098L3.57329 3.66311C3.43508 3.61498 3.28527 3.6094 3.14377 3.64711C3.00226 3.68482 2.87576 3.76403 2.78108 3.87423L2.74045 3.9209C1.95896 4.82787 1.34963 5.86594 0.941619 6.98546L0.921306 7.04324C0.81974 7.32102 0.90325 7.63215 1.13121 7.82549L2.6276 9.08331C2.55764 9.50111 2.52378 9.92779 2.52378 10.3522C2.52378 10.7789 2.55764 11.2056 2.6276 11.6212L1.13121 12.879C1.0197 12.973 0.939895 13.0982 0.902401 13.2379C0.864906 13.3776 0.8715 13.5253 0.921306 13.6613L0.941619 13.719C1.35014 14.8391 1.95501 15.8725 2.74045 16.7836L2.78108 16.8303C2.876 16.9402 3.0025 17.0192 3.14392 17.0568C3.28534 17.0945 3.43504 17.0891 3.57329 17.0414L5.42178 16.3947C6.09437 16.9392 6.84595 17.3703 7.65621 17.6703L8.01282 19.5682C8.03956 19.7103 8.10958 19.841 8.21359 19.9431C8.3176 20.0451 8.45067 20.1135 8.59513 20.1393L8.65607 20.1504C9.84277 20.3604 11.058 20.3604 12.2447 20.1504L12.3056 20.1393C12.4501 20.1135 12.5832 20.0451 12.6872 19.9431C12.7912 19.841 12.8612 19.7103 12.888 19.5682L13.2423 17.6792C14.059 17.3778 14.8194 16.9452 15.4925 16.3991L17.3275 17.0414C17.4657 17.0895 17.6155 17.0951 17.757 17.0574C17.8985 17.0197 18.025 16.9405 18.1197 16.8303L18.1603 16.7836C18.9458 15.8702 19.5506 14.8391 19.9592 13.719L19.9795 13.6613C20.081 13.3879 19.9975 13.0768 19.7696 12.8835ZM16.6888 9.33221C16.7452 9.66778 16.7745 10.0122 16.7745 10.3567C16.7745 10.7012 16.7452 11.0456 16.6888 11.3812L16.5398 12.2723L18.2258 13.6924C17.9702 14.2722 17.6476 14.821 17.2643 15.328L15.1698 14.5969L14.4611 15.1702C13.9217 15.6058 13.3213 15.948 12.6713 16.188L11.8114 16.5058L11.4074 18.6615C10.7699 18.7326 10.1263 18.7326 9.4889 18.6615L9.0849 16.5014L8.23175 16.1791C7.5885 15.9391 6.9904 15.5969 6.45549 15.1635L5.74679 14.588L3.63874 15.3258C3.25505 14.8169 2.93456 14.268 2.67726 13.6902L4.3813 12.2568L4.23459 11.3678C4.18042 11.0367 4.15108 10.6945 4.15108 10.3567C4.15108 10.0167 4.17817 9.67667 4.23459 9.34554L4.3813 8.45662L2.67726 7.02323C2.9323 6.44321 3.25505 5.89653 3.63874 5.38762L5.74679 6.12542L6.45549 5.54985C6.9904 5.1165 7.5885 4.77426 8.23175 4.53425L9.08716 4.21646L9.49116 2.05638C10.1254 1.98527 10.7731 1.98527 11.4096 2.05638L11.8136 4.21202L12.6735 4.52981C13.3213 4.76982 13.9239 5.11205 14.4633 5.54762L15.172 6.12098L17.2666 5.38984C17.6502 5.89875 17.9707 6.44766 18.228 7.02546L16.5421 8.44551L16.6888 9.33221ZM10.4526 6.2232C8.25884 6.2232 6.48031 7.97438 6.48031 10.1345C6.48031 12.2945 8.25884 14.0457 10.4526 14.0457C12.6465 14.0457 14.425 12.2945 14.425 10.1345C14.425 7.97438 12.6465 6.2232 10.4526 6.2232ZM12.2402 11.8945C12.0057 12.126 11.7271 12.3096 11.4203 12.4347C11.1136 12.5598 10.7847 12.624 10.4526 12.6234C9.7778 12.6234 9.14358 12.3634 8.6651 11.8945C8.42997 11.6637 8.24352 11.3893 8.11647 11.0873C7.98942 10.7852 7.92428 10.4614 7.9248 10.1345C7.9248 9.46999 8.18887 8.84552 8.6651 8.3744C9.14358 7.90327 9.7778 7.64548 10.4526 7.64548C11.1275 7.64548 11.7617 7.90327 12.2402 8.3744C12.4753 8.60525 12.6618 8.87959 12.7888 9.18165C12.9159 9.48371 12.981 9.80752 12.9805 10.1345C12.9805 10.7989 12.7164 11.4234 12.2402 11.8945Z" fill="white"/>
</svg>
