<svg width="41" height="48" viewBox="0 0 41 48" fill="none" xmlns="http://www.w3.org/2000/svg">
<path d="M6.84187 6.85518C6.84187 5.03708 7.56163 3.29343 8.84281 2.00784C10.124 0.722241 11.8616 0 13.6735 0H27.3367C29.1486 0 30.8863 0.722241 32.1674 2.00784C33.4486 3.29343 34.1684 5.03708 34.1684 6.85518H35.8763C37.2352 6.85518 38.5384 7.39687 39.4993 8.36106C40.4602 9.32526 41 10.633 41 11.9966V15.4242C41 19.7121 37.8575 23.2631 33.7619 23.8937C33.092 26.5737 31.6315 28.9884 29.5715 30.8218C27.5116 32.6553 24.9481 33.8221 22.2164 34.1697V37.7035H27.3402C29.152 37.7035 30.8897 38.4258 32.1709 39.7114C33.452 40.9969 34.1718 42.7406 34.1718 44.5587V46.2862C34.1718 46.7407 33.9919 47.1766 33.6716 47.498C33.3513 47.8194 32.9168 48 32.4639 48H8.5532C8.10023 48 7.66582 47.8194 7.34552 47.498C7.02523 47.1766 6.84529 46.7407 6.84529 46.2862V44.5587C6.84529 42.7406 7.56505 40.9969 8.84623 39.7114C10.1274 38.4258 11.8651 37.7035 13.6769 37.7035H18.8006V34.1731C16.0669 33.8263 13.5013 32.6591 11.4399 30.8242C9.37852 28.9894 7.91754 26.5725 7.24835 23.8903C5.23237 23.5788 3.39381 22.5542 2.0646 21.0017C0.73539 19.4492 0.00312369 17.471 0 15.4242V11.9966C0 10.633 0.539819 9.32526 1.5007 8.36106C2.46159 7.39687 3.76482 6.85518 5.12372 6.85518H6.84529H6.84187ZM30.7526 6.85518C30.7526 5.94613 30.3927 5.07431 29.7521 4.43151C29.1115 3.78871 28.2427 3.42759 27.3367 3.42759H13.6735C12.7676 3.42759 11.8987 3.78871 11.2582 4.43151C10.6176 5.07431 10.2577 5.94613 10.2577 6.85518V20.5656C10.226 23.2927 11.2752 25.9208 13.1746 27.8717C15.0739 29.8226 17.6678 30.9365 20.3856 30.9683C23.1034 31.0001 25.7224 29.9473 27.6666 28.0414C29.6108 26.1355 30.7209 23.5326 30.7526 20.8055V6.85518ZM34.1684 20.2708C35.1672 19.9164 36.032 19.2601 36.6438 18.3921C37.2555 17.5242 37.584 16.4872 37.5842 15.4242V11.9966C37.5842 11.542 37.4043 11.1061 37.084 10.7847C36.7637 10.4633 36.3292 10.2828 35.8763 10.2828H34.1684C34.1684 10.2828 33.1695 20.6251 34.1684 20.2708ZM6.84187 10.2828H5.12372C4.67075 10.2828 4.23634 10.4633 3.91605 10.7847C3.59575 11.1061 3.41581 11.542 3.41581 11.9966V15.4242C3.41581 17.6624 4.85045 19.5681 6.84187 20.2742V10.2828ZM10.2577 44.5587V44.5724H30.7526V44.5587C30.7526 43.6496 30.3927 42.7778 29.7521 42.135C29.1115 41.4922 28.2427 41.1311 27.3367 41.1311H13.6735C12.7676 41.1311 11.8987 41.4922 11.2582 42.135C10.6176 42.7778 10.2577 43.6496 10.2577 44.5587Z" fill="#D3D3D3"/>
</svg>
