<svg width="19" height="19" viewBox="0 0 19 19" fill="none" xmlns="http://www.w3.org/2000/svg">
<path d="M17.8832 1.46414H15.8068V0.575215C15.8068 0.477433 15.7255 0.39743 15.6262 0.39743H4.07039C3.97109 0.39743 3.88983 0.477433 3.88983 0.575215V1.46414H1.81339C1.55001 1.46414 1.29742 1.56716 1.11118 1.75053C0.92494 1.93391 0.820312 2.18262 0.820312 2.44195V5.73096C0.820312 7.54659 2.17451 9.05553 3.93949 9.3311C4.28932 11.9134 6.39511 13.9468 9.0358 14.2313V16.5691H4.61207C4.21259 16.5691 3.88983 16.8869 3.88983 17.2803V17.9981C3.88983 18.0959 3.97109 18.1759 4.07039 18.1759H15.6262C15.7255 18.1759 15.8068 18.0959 15.8068 17.9981V17.2803C15.8068 16.8869 15.4841 16.5691 15.0846 16.5691H10.6608V14.2313C13.3015 13.9468 15.4073 11.9134 15.7571 9.3311C17.5221 9.05553 18.8763 7.54659 18.8763 5.73096V2.44195C18.8763 2.18262 18.7717 1.93391 18.5855 1.75053C18.3992 1.56716 18.1466 1.46414 17.8832 1.46414ZM2.44535 5.73096V3.0642H3.88983V7.6777C3.47059 7.54585 3.10474 7.28623 2.84511 6.93632C2.58548 6.58641 2.44549 6.16431 2.44535 5.73096ZM14.1818 8.57552C14.1818 9.66667 13.7507 10.6956 12.9652 11.4667C12.1798 12.2401 11.1371 12.6646 10.0289 12.6646H9.66776C8.55957 12.6646 7.51458 12.2401 6.7314 11.4667C5.94596 10.6934 5.51488 9.66667 5.51488 8.57552V1.99749H14.1818V8.57552ZM17.2513 5.73096C17.2513 6.64211 16.6441 7.41547 15.8068 7.6777V3.0642H17.2513V5.73096Z" fill="white"/>
</svg>
