<svg width="28" height="23" viewBox="0 0 28 23" fill="none" xmlns="http://www.w3.org/2000/svg">
<path d="M27.8947 3.19574C26.8853 3.63851 25.8098 3.932 24.6884 4.0745C25.842 3.38574 26.7224 2.30341 27.1364 0.998834C26.0608 1.64009 24.8733 2.09305 23.6078 2.34582C22.5865 1.25839 21.1309 0.5849 19.5431 0.5849C16.4623 0.5849 13.9821 3.08547 13.9821 6.15096C13.9821 6.59204 14.0194 7.01615 14.111 7.4199C9.4848 7.19428 5.39126 4.97701 2.64131 1.59938C2.16122 2.43234 1.87961 3.38574 1.87961 4.4121C1.87961 6.33926 2.87203 8.04759 4.35134 9.03662C3.45731 9.01966 2.58024 8.7601 1.83719 8.35126V8.41233C1.83719 11.1165 3.76606 13.3626 6.29547 13.88C5.84252 14.0038 5.34885 14.0632 4.83652 14.0632C4.48027 14.0632 4.12062 14.0429 3.78302 13.9682C4.50402 16.1719 6.54994 17.792 8.98265 17.8446C7.08941 19.3256 4.68554 20.2179 2.08318 20.2179C1.62683 20.2179 1.18915 20.1976 0.751465 20.1416C3.21641 21.7312 6.1377 22.6388 9.28801 22.6388C19.5278 22.6388 25.1261 14.1565 25.1261 6.80409C25.1261 6.55811 25.1176 6.3206 25.1057 6.0848C26.2101 5.30104 27.1381 4.32218 27.8947 3.19574V3.19574Z" fill="white"/>
</svg>
